<?xml version="1.0" encoding="UTF-8" standalone="no"?>
<!DOCTYPE svg PUBLIC "-//W3C//DTD SVG 1.1//EN"
 "http://www.w3.org/Graphics/SVG/1.1/DTD/svg11.dtd">
<!-- Generated by graphviz version 2.49.1 (20210923.0004)
 -->
<!-- Title: G Pages: 1 -->
<svg width="388pt" height="277pt"
 viewBox="0.00 0.00 388.00 277.00" xmlns="http://www.w3.org/2000/svg" xmlns:xlink="http://www.w3.org/1999/xlink">
<g id="graph0" class="graph" transform="scale(1 1) rotate(0) translate(4 273)">
<title>G</title>
<polygon fill="white" stroke="transparent" points="-4,4 -4,-273 384,-273 384,4 -4,4"/>
<g id="clust1" class="cluster">
<title>cluster1</title>
<polygon fill="none" stroke="black" points="8,-8 8,-261 372,-261 372,-8 8,-8"/>
<text text-anchor="middle" x="190" y="-245.8" font-family="Times New Roman,serif" font-size="14.00">Legend</text>
</g>
<!-- key -->
<g id="node1" class="node">
<title>key</title>
<text text-anchor="start" x="41.5" y="-212.8" font-family="Times New Roman,serif" font-size="14.00">One Joint Publication</text>
<text text-anchor="start" x="32.5" y="-193.8" font-family="Times New Roman,serif" font-size="14.00">Two Joint Publications</text>
<text text-anchor="start" x="26.5" y="-174.8" font-family="Times New Roman,serif" font-size="14.00">Three Joint Publications</text>
<text text-anchor="start" x="31.5" y="-155.8" font-family="Times New Roman,serif" font-size="14.00">Four Joint Publications</text>
</g>
<!-- key2 -->
<g id="node2" class="node">
<title>key2</title>
<text text-anchor="start" x="234.5" y="-212.8" font-family="Times New Roman,serif" font-size="14.00"> </text>
<text text-anchor="start" x="234.5" y="-193.8" font-family="Times New Roman,serif" font-size="14.00"> </text>
<text text-anchor="start" x="234.5" y="-174.8" font-family="Times New Roman,serif" font-size="14.00"> </text>
<text text-anchor="start" x="234.5" y="-155.8" font-family="Times New Roman,serif" font-size="14.00"> </text>
</g>
<!-- key&#45;&#45;key2 -->
<g id="edge1" class="edge">
<title>key:e&#45;&#45;key2:w</title>
<path fill="none" stroke="black" stroke-width="2" d="M164.5,-217C194.28,-217 201.72,-217 231.5,-217"/>
</g>
<!-- key&#45;&#45;key2 -->
<g id="edge2" class="edge">
<title>key:e&#45;&#45;key2:w</title>
<path fill="none" stroke="#17c30a" stroke-width="2" d="M164.5,-198C194.28,-198 201.72,-198 231.5,-198"/>
</g>
<!-- key&#45;&#45;key2 -->
<g id="edge3" class="edge">
<title>key:e&#45;&#45;key2:w</title>
<path fill="none" stroke="#2b00fc" stroke-width="2" d="M164.5,-178C194.28,-178 201.72,-178 231.5,-178"/>
</g>
<!-- key&#45;&#45;key2 -->
<g id="edge4" class="edge">
<title>key:e&#45;&#45;key2:w</title>
<path fill="none" stroke="#fc0800" stroke-width="2" d="M164.5,-159C194.28,-159 201.72,-159 231.5,-159"/>
</g>
<!-- Staff -->
<g id="node3" class="node">
<title>Staff</title>
<polygon fill="cornflowerblue" stroke="transparent" points="120.5,-128 66.5,-128 66.5,-92 120.5,-92 120.5,-128"/>
<text text-anchor="middle" x="93.5" y="-106.3" font-family="Times New Roman,serif" font-size="14.00">Staff</text>
</g>
<!-- Student -->
<g id="node4" class="node">
<title>Student</title>
<polygon fill="chocolate" stroke="transparent" points="266,-128 207,-128 207,-92 266,-92 266,-128"/>
<text text-anchor="middle" x="236.5" y="-106.3" font-family="Times New Roman,serif" font-size="14.00">Student</text>
</g>
<!-- Staff&#45;&#45;Student -->
<!-- External -->
<g id="node5" class="node">
<title>External</title>
<polygon fill="lightgrey" stroke="transparent" points="364,-128 302,-128 302,-92 364,-92 364,-128"/>
<text text-anchor="middle" x="333" y="-106.3" font-family="Times New Roman,serif" font-size="14.00">External</text>
</g>
<!-- Student&#45;&#45;External -->
<!-- Male -->
<g id="node6" class="node">
<title>Male</title>
<ellipse fill="none" stroke="black" cx="93.5" cy="-45" rx="28.7" ry="28.7"/>
<text text-anchor="middle" x="93.5" y="-41.3" font-family="Times New Roman,serif" font-size="14.00">Male</text>
</g>
<!-- Female -->
<g id="node7" class="node">
<title>Female</title>
<polygon fill="none" stroke="black" points="264.5,-63 208.5,-63 208.5,-27 264.5,-27 264.5,-63"/>
<text text-anchor="middle" x="236.5" y="-41.3" font-family="Times New Roman,serif" font-size="14.00">Female</text>
</g>
<!-- Male&#45;&#45;Female -->
</g>
</svg>
