<?xml version="1.0" encoding="UTF-8" standalone="no"?>
<!DOCTYPE svg PUBLIC "-//W3C//DTD SVG 1.1//EN"
 "http://www.w3.org/Graphics/SVG/1.1/DTD/svg11.dtd">
<!-- Generated by graphviz version 2.49.1 (20210923.0004)
 -->
<!-- Title: G Pages: 1 -->
<svg width="1159pt" height="738pt"
 viewBox="0.00 0.00 1159.00 738.00" xmlns="http://www.w3.org/2000/svg" xmlns:xlink="http://www.w3.org/1999/xlink">
<g id="graph0" class="graph" transform="scale(1 1) rotate(0) translate(4 734)">
<title>G</title>
<polygon fill="white" stroke="transparent" points="-4,4 -4,-734 1155,-734 1155,4 -4,4"/>
<!-- 2&#45;&#45;1 -->
<g id="edge1" class="edge">
<title>2&#45;&#45;1</title>
<path fill="none" stroke="#17c30a" stroke-width="2" d="M466.19,-217.78C444.88,-244.23 403.12,-296.06 381.59,-322.77"/>
</g>
<!-- 3&#45;&#45;2 -->
<g id="edge2" class="edge">
<title>3&#45;&#45;2</title>
<path fill="none" stroke="#2b00fc" stroke-width="2" d="M627.45,-398.03C597.42,-358.14 521.92,-257.87 491.95,-218.05"/>
</g>
<!-- 3&#45;&#45;1 -->
<g id="edge3" class="edge">
<title>3&#45;&#45;1</title>
<path fill="none" stroke="#17c30a" stroke-width="2" d="M609.91,-406.44C557.48,-391.95 450.15,-362.27 397.92,-347.83"/>
</g>
<!-- 4&#45;&#45;2 -->
<g id="edge4" class="edge">
<title>4&#45;&#45;2</title>
<path fill="none" stroke="#17c30a" stroke-width="2" d="M438.26,-375.79C446.94,-339 466.53,-255.94 475.17,-219.31"/>
</g>
<!-- 4&#45;&#45;1 -->
<g id="edge5" class="edge">
<title>4&#45;&#45;1</title>
<path fill="none" stroke="#2b00fc" stroke-width="2" d="M415.62,-378.77C406.48,-371.23 395.45,-362.15 386.32,-354.63"/>
</g>
<!-- 4&#45;&#45;3 -->
<g id="edge6" class="edge">
<title>4&#45;&#45;3</title>
<path fill="none" stroke="#17c30a" stroke-width="2" d="M467.1,-397.26C505.44,-401.14 568.24,-407.5 606.69,-411.4"/>
</g>
<!-- 5&#45;&#45;1 -->
<g id="edge7" class="edge">
<title>5&#45;&#45;1</title>
<path fill="none" stroke="black" stroke-width="2" d="M187.88,-470.17C226.68,-442.04 309.76,-381.82 348.02,-354.1"/>
</g>
<!-- 6&#45;&#45;1 -->
<g id="edge8" class="edge">
<title>6&#45;&#45;1</title>
<path fill="none" stroke="#17c30a" stroke-width="2" d="M197.99,-216.3C235.64,-243.59 311.77,-298.78 348.01,-325.05"/>
</g>
<!-- 7&#45;&#45;1 -->
<g id="edge9" class="edge">
<title>7&#45;&#45;1</title>
<path fill="none" stroke="black" stroke-width="2" d="M142.18,-295.27C193.99,-305.43 288.01,-323.87 336.8,-333.44"/>
</g>
<!-- 7&#45;&#45;5 -->
<g id="edge10" class="edge">
<title>7&#45;&#45;5</title>
<path fill="none" stroke="#fc0800" stroke-width="2" d="M111.26,-305.95C122.93,-343.38 149.85,-429.74 161.55,-467.26"/>
</g>
<!-- 7&#45;&#45;6 -->
<g id="edge11" class="edge">
<title>7&#45;&#45;6</title>
<path fill="none" stroke="#17c30a" stroke-width="2" d="M119.25,-271.19C131.61,-255.74 149.79,-233.02 162.21,-217.5"/>
</g>
<!-- 8&#45;&#45;2 -->
<g id="edge12" class="edge">
<title>8&#45;&#45;2</title>
<path fill="none" stroke="#2b00fc" stroke-width="2" d="M508.98,-546.38C503.68,-484.58 486.27,-281.46 480.95,-219.5"/>
</g>
<!-- 8&#45;&#45;1 -->
<g id="edge13" class="edge">
<title>8&#45;&#45;1</title>
<path fill="none" stroke="#17c30a" stroke-width="2" d="M499.82,-547.48C473.41,-505.82 405.42,-398.53 378.88,-356.67"/>
</g>
<!-- 8&#45;&#45;3 -->
<g id="edge14" class="edge">
<title>8&#45;&#45;3</title>
<path fill="none" stroke="black" stroke-width="2" d="M524.39,-548.37C549.19,-519.72 600.89,-460.01 625.9,-431.13"/>
</g>
<!-- 8&#45;&#45;4 -->
<g id="edge15" class="edge">
<title>8&#45;&#45;4</title>
<path fill="none" stroke="#17c30a" stroke-width="2" d="M502.62,-546.78C487.92,-514.02 456.52,-444.09 441.85,-411.41"/>
</g>
<!-- 9&#45;&#45;1 -->
<g id="edge16" class="edge">
<title>9&#45;&#45;1</title>
<path fill="none" stroke="#2b00fc" stroke-width="2" d="M645.19,-259.57C588.79,-275.85 456.91,-313.92 397.72,-331.01"/>
</g>
<!-- 9&#45;&#45;3 -->
<g id="edge17" class="edge">
<title>9&#45;&#45;3</title>
<path fill="none" stroke="black" stroke-width="2" d="M668.1,-269.99C662.04,-301.29 649.64,-365.29 643.57,-396.65"/>
</g>
<!-- 10&#45;&#45;3 -->
<g id="edge18" class="edge">
<title>10&#45;&#45;3</title>
<path fill="none" stroke="#17c30a" stroke-width="2" d="M668.33,-104.15C663.1,-161.63 646.93,-339.29 641.7,-396.69"/>
</g>
<!-- 11&#45;&#45;1 -->
<g id="edge19" class="edge">
<title>11&#45;&#45;1</title>
<path fill="none" stroke="black" stroke-width="2" d="M288.73,-300.91C304.92,-308.8 326.71,-319.42 343.35,-327.53"/>
</g>
<!-- 11&#45;&#45;5 -->
<g id="edge20" class="edge">
<title>11&#45;&#45;5</title>
<path fill="none" stroke="#17c30a" stroke-width="2" d="M257.32,-307.22C238.59,-344.19 194.88,-430.44 176.04,-467.63"/>
</g>
<!-- 11&#45;&#45;6 -->
<g id="edge21" class="edge">
<title>11&#45;&#45;6</title>
<path fill="none" stroke="#2b00fc" stroke-width="2" d="M250.81,-274.69C234.74,-258.72 209.52,-233.67 192.86,-217.12"/>
</g>
<!-- 12&#45;&#45;1 -->
<g id="edge22" class="edge">
<title>12&#45;&#45;1</title>
<path fill="none" stroke="black" stroke-width="2" d="M271.36,-452.2C292.79,-427.23 332.62,-380.84 353.86,-356.11"/>
</g>
<!-- 13&#45;&#45;1 -->
<g id="edge23" class="edge">
<title>13&#45;&#45;1</title>
<path fill="none" stroke="#17c30a" stroke-width="2" d="M414.43,-598.79C405.43,-548.52 380.33,-408.19 371.32,-357.84"/>
</g>
<!-- 13&#45;&#45;4 -->
<g id="edge24" class="edge">
<title>13&#45;&#45;4</title>
<path fill="none" stroke="black" stroke-width="2" d="M419.02,-598.73C422.08,-556.8 429.6,-453.98 432.66,-412.1"/>
</g>
<!-- 14&#45;&#45;2 -->
<g id="edge29" class="edge">
<title>14&#45;&#45;2</title>
<path fill="none" stroke="#2b00fc" stroke-width="2" d="M558.95,-333.85C541.71,-305.14 507.21,-247.69 489.86,-218.81"/>
</g>
<!-- 14&#45;&#45;1 -->
<g id="edge30" class="edge">
<title>14&#45;&#45;1</title>
<path fill="none" stroke="#17c30a" stroke-width="2" d="M537.37,-349.2C500.14,-347.08 438.86,-343.6 401.12,-341.46"/>
</g>
<!-- 14&#45;&#45;3 -->
<g id="edge31" class="edge">
<title>14&#45;&#45;3</title>
<path fill="none" stroke="black" stroke-width="2" d="M586.39,-366.45C597.36,-376.33 611.55,-389.1 622.58,-399.04"/>
</g>
<!-- 14&#45;&#45;4 -->
<g id="edge32" class="edge">
<title>14&#45;&#45;4</title>
<path fill="none" stroke="#17c30a" stroke-width="2" d="M541.23,-359.9C518.48,-367.11 486.5,-377.25 463.39,-384.58"/>
</g>
<!-- 17&#45;&#45;6 -->
<g id="edge25" class="edge">
<title>17&#45;&#45;6</title>
<path fill="none" stroke="#17c30a" stroke-width="2" d="M62.14,-180.86C83.18,-184.46 111.35,-189.28 134.41,-193.22"/>
</g>
<!-- 17&#45;&#45;7 -->
<g id="edge26" class="edge">
<title>17&#45;&#45;7</title>
<path fill="none" stroke="black" stroke-width="2" d="M42.78,-192.71C56.72,-213.85 80.34,-249.65 94.33,-270.87"/>
</g>
<!-- 18&#45;&#45;2 -->
<g id="edge27" class="edge">
<title>18&#45;&#45;2</title>
<path fill="none" stroke="#17c30a" stroke-width="2" d="M363.07,-187.25C388.76,-190.37 423.31,-194.57 448.06,-197.58"/>
</g>
<!-- 18&#45;&#45;1 -->
<g id="edge28" class="edge">
<title>18&#45;&#45;1</title>
<path fill="none" stroke="black" stroke-width="2" d="M332.54,-200.94C340.24,-230.99 355.64,-291.11 363.38,-321.34"/>
</g>
<!-- 20&#45;&#45;2 -->
<g id="edge33" class="edge">
<title>20&#45;&#45;2</title>
<path fill="none" stroke="#fc0800" stroke-width="2" d="M573.55,-149.12C552.16,-161 522.71,-177.35 502.47,-188.58"/>
</g>
<!-- 20&#45;&#45;1 -->
<g id="edge34" class="edge">
<title>20&#45;&#45;1</title>
<path fill="none" stroke="#17c30a" stroke-width="2" d="M580.14,-152.24C534.86,-192.24 427.55,-287.02 385.44,-324.22"/>
</g>
<!-- 22&#45;&#45;2 -->
<g id="edge35" class="edge">
<title>22&#45;&#45;2</title>
<path fill="none" stroke="#2b00fc" stroke-width="2" d="M473.02,-57.36C474.4,-88.53 477.2,-151.6 478.58,-182.9"/>
</g>
<!-- 22&#45;&#45;1 -->
<g id="edge36" class="edge">
<title>22&#45;&#45;1</title>
<path fill="none" stroke="#17c30a" stroke-width="2" d="M466.01,-56.95C447.48,-110.4 392.71,-268.44 374.22,-321.77"/>
</g>
<!-- 26&#45;&#45;24 -->
<g id="edge37" class="edge">
<title>26&#45;&#45;24</title>
<path fill="none" stroke="#fc0800" stroke-width="2" d="M957.94,-575.64C941.89,-556.04 915.12,-523.36 899.11,-503.81"/>
</g>
<!-- 26&#45;&#45;25 -->
<g id="edge38" class="edge">
<title>26&#45;&#45;25</title>
<path fill="none" stroke="black" stroke-width="2" d="M951.02,-604.98C915.42,-627.89 842.02,-675.12 806.04,-698.28"/>
</g>
<!-- 28&#45;&#45;3 -->
<g id="edge39" class="edge">
<title>28&#45;&#45;3</title>
<path fill="none" stroke="#17c30a" stroke-width="2" d="M762.99,-489.05C736.48,-473.03 690.1,-445.01 662.51,-428.35"/>
</g>
<!-- 28&#45;&#45;24 -->
<g id="edge40" class="edge">
<title>28&#45;&#45;24</title>
<path fill="none" stroke="#2b00fc" stroke-width="2" d="M809.9,-497.71C824.51,-495.77 842.62,-493.37 857.49,-491.39"/>
</g>
<!-- 28&#45;&#45;25 -->
<g id="edge41" class="edge">
<title>28&#45;&#45;25</title>
<path fill="none" stroke="#fc0800" stroke-width="2" d="M783.37,-519.56C783.75,-559.45 784.67,-653.84 785.05,-693.56"/>
</g>
<!-- 29&#45;&#45;3 -->
<g id="edge42" class="edge">
<title>29&#45;&#45;3</title>
<path fill="none" stroke="#fc0800" stroke-width="2" d="M605.31,-502.46C613.05,-482.92 625.36,-451.86 633.06,-432.43"/>
</g>
<!-- 30&#45;&#45;24 -->
<g id="edge43" class="edge">
<title>30&#45;&#45;24</title>
<path fill="none" stroke="#2b00fc" stroke-width="2" d="M1001.58,-331.9C976.75,-365.31 922.36,-438.51 898.03,-471.25"/>
</g>
<!-- 30&#45;&#45;27 -->
<g id="edge44" class="edge">
<title>30&#45;&#45;27</title>
<path fill="none" stroke="#17c30a" stroke-width="2" d="M1026.28,-332.03C1046.3,-361.19 1086.48,-419.71 1106.42,-448.74"/>
</g>
<!-- 31&#45;&#45;2 -->
<g id="edge45" class="edge">
<title>31&#45;&#45;2</title>
<path fill="none" stroke="black" stroke-width="2" d="M665.89,-175.61C626.4,-181.06 552.37,-191.3 510.44,-197.1"/>
</g>
<!-- 31&#45;&#45;9 -->
<g id="edge46" class="edge">
<title>31&#45;&#45;9</title>
<path fill="none" stroke="#fc0800" stroke-width="2" d="M687.81,-189.69C684.38,-202.86 679.73,-220.74 676.28,-233.96"/>
</g>
<!-- 32&#45;&#45;1 -->
<g id="edge47" class="edge">
<title>32&#45;&#45;1</title>
<path fill="none" stroke="#2b00fc" stroke-width="2" d="M759.59,-406.27C685.29,-393.61 478.91,-358.46 399.63,-344.95"/>
</g>
<!-- 32&#45;&#45;26 -->
<g id="edge48" class="edge">
<title>32&#45;&#45;26</title>
<path fill="none" stroke="#17c30a" stroke-width="2" d="M805.11,-428.91C841.39,-464.51 921.68,-543.28 955.63,-576.59"/>
</g>
<!-- 32&#45;&#45;25 -->
<g id="edge49" class="edge">
<title>32&#45;&#45;25</title>
<path fill="none" stroke="black" stroke-width="2" d="M786.64,-429.26C786.37,-483.08 785.59,-640.03 785.32,-693.55"/>
</g>
<!-- 32&#45;&#45;29 -->
<g id="edge50" class="edge">
<title>32&#45;&#45;29</title>
<path fill="none" stroke="#17c30a" stroke-width="2" d="M759.72,-426.58C722.15,-448.4 654.84,-487.48 620.18,-507.61"/>
</g>
<!-- 33&#45;&#45;3 -->
<g id="edge51" class="edge">
<title>33&#45;&#45;3</title>
<path fill="none" stroke="#2b00fc" stroke-width="2" d="M821.97,-270.2C783.7,-300.62 697.39,-369.21 659.04,-399.69"/>
</g>
<!-- 33&#45;&#45;9 -->
<g id="edge52" class="edge">
<title>33&#45;&#45;9</title>
<path fill="none" stroke="black" stroke-width="2" d="M807.01,-254.54C775.85,-253.94 730.11,-253.07 700.59,-252.5"/>
</g>
<!-- 33&#45;&#45;24 -->
<g id="edge53" class="edge">
<title>33&#45;&#45;24</title>
<path fill="none" stroke="#17c30a" stroke-width="2" d="M844.39,-273.43C852.8,-316.88 873.95,-426.11 882.34,-469.48"/>
</g>
<!-- 33&#45;&#45;30 -->
<g id="edge54" class="edge">
<title>33&#45;&#45;30</title>
<path fill="none" stroke="black" stroke-width="2" d="M869.51,-265.01C900.99,-275.81 951.34,-293.08 983.63,-304.15"/>
</g>
<!-- 33&#45;&#45;31 -->
<g id="edge55" class="edge">
<title>33&#45;&#45;31</title>
<path fill="none" stroke="#2b00fc" stroke-width="2" d="M817.34,-242C788.73,-225.95 740.87,-199.1 713.45,-183.72"/>
</g>
<!-- 33&#45;&#45;32 -->
<g id="edge56" class="edge">
<title>33&#45;&#45;32</title>
<path fill="none" stroke="#17c30a" stroke-width="2" d="M834.65,-273.05C824.27,-302.93 803.49,-362.71 793.04,-392.76"/>
</g>
<!-- 33&#45;&#45;15 -->
<g id="edge57" class="edge">
<title>33&#45;&#45;15</title>
<path fill="none" stroke="#fc0800" stroke-width="2" d="M844.14,-237.24C849.37,-208.64 859.53,-153.05 864.76,-124.41"/>
</g>
<!-- 33&#45;&#45;16 -->
<g id="edge58" class="edge">
<title>33&#45;&#45;16</title>
<path fill="none" stroke="#2b00fc" stroke-width="2" d="M866.28,-243.05C901.75,-226.12 965.82,-195.54 1002.2,-178.18"/>
</g>
<!-- 33&#45;&#45;19 -->
<g id="edge59" class="edge">
<title>33&#45;&#45;19</title>
<path fill="none" stroke="#17c30a" stroke-width="2" d="M874.71,-255.54C931.49,-256.12 1044.77,-257.29 1096.7,-257.82"/>
</g>
<!-- 33&#45;&#45;21 -->
<g id="edge60" class="edge">
<title>33&#45;&#45;21</title>
<path fill="none" stroke="black" stroke-width="2" d="M854.14,-238.37C886.49,-197.4 969.03,-92.86 1000.93,-52.45"/>
</g>
<!-- 33&#45;&#45;23 -->
<g id="edge61" class="edge">
<title>33&#45;&#45;23</title>
<path fill="none" stroke="black" stroke-width="2" d="M844.3,-236.99C852.64,-192.9 873.84,-80.72 882.19,-36.56"/>
</g>
<!-- 34&#45;&#45;9 -->
<g id="edge62" class="edge">
<title>34&#45;&#45;9</title>
<path fill="none" stroke="black" stroke-width="2" d="M752.01,-288.78C734.59,-280.8 711.76,-270.34 694.87,-262.6"/>
</g>
<!-- 34&#45;&#45;10 -->
<g id="edge63" class="edge">
<title>34&#45;&#45;10</title>
<path fill="none" stroke="#17c30a" stroke-width="2" d="M768.88,-282.98C748.58,-242.55 698.74,-143.28 678.62,-103.2"/>
</g>
<!-- 34&#45;&#45;14 -->
<g id="edge64" class="edge">
<title>34&#45;&#45;14</title>
<path fill="none" stroke="black" stroke-width="2" d="M746.94,-307.99C707.08,-317.64 638.04,-334.36 598.79,-343.86"/>
</g>
<!-- 34&#45;&#45;20 -->
<g id="edge65" class="edge">
<title>34&#45;&#45;20</title>
<path fill="none" stroke="#17c30a" stroke-width="2" d="M761.05,-284.87C728.11,-253.86 654.78,-184.82 619.91,-152"/>
</g>
<!-- 34&#45;&#45;24 -->
<g id="edge66" class="edge">
<title>34&#45;&#45;24</title>
<path fill="none" stroke="#17c30a" stroke-width="2" d="M787.68,-317.8C808.33,-353.54 855.55,-435.21 876.05,-470.68"/>
</g>
<!-- 34&#45;&#45;28 -->
<g id="edge67" class="edge">
<title>34&#45;&#45;28</title>
<path fill="none" stroke="#2b00fc" stroke-width="2" d="M778.19,-318.71C779.23,-356.82 781.64,-444.78 782.69,-482.99"/>
</g>
<!-- 34&#45;&#45;29 -->
<g id="edge68" class="edge">
<title>34&#45;&#45;29</title>
<path fill="none" stroke="#17c30a" stroke-width="2" d="M764.2,-317.06C730.86,-357.9 644.86,-463.23 611.61,-503.95"/>
</g>
<!-- 34&#45;&#45;30 -->
<g id="edge69" class="edge">
<title>34&#45;&#45;30</title>
<path fill="none" stroke="#2b00fc" stroke-width="2" d="M811.35,-302.55C855,-305.16 930.92,-309.7 976.52,-312.43"/>
</g>
<!-- 34&#45;&#45;27 -->
<g id="edge70" class="edge">
<title>34&#45;&#45;27</title>
<path fill="none" stroke="#17c30a" stroke-width="2" d="M802.73,-312.7C865.7,-343.27 1030.1,-423.11 1093.11,-453.7"/>
</g>
<!-- 34&#45;&#45;31 -->
<g id="edge71" class="edge">
<title>34&#45;&#45;31</title>
<path fill="none" stroke="black" stroke-width="2" d="M766.37,-283.46C749.98,-258.73 719.81,-213.22 703.54,-188.68"/>
</g>
<!-- 34&#45;&#45;32 -->
<g id="edge72" class="edge">
<title>34&#45;&#45;32</title>
<path fill="none" stroke="#fc0800" stroke-width="2" d="M779.19,-318.76C780.86,-339.21 783.56,-372.19 785.24,-392.64"/>
</g>
<!-- 34&#45;&#45;33 -->
<g id="edge73" class="edge">
<title>34&#45;&#45;33</title>
<path fill="none" stroke="#17c30a" stroke-width="2" d="M798.03,-285.94C805.24,-280.76 813.35,-274.94 820.56,-269.76"/>
</g>
<!-- 34&#45;&#45;15 -->
<g id="edge74" class="edge">
<title>34&#45;&#45;15</title>
<path fill="none" stroke="black" stroke-width="2" d="M785.87,-282.97C803.03,-246.1 842.63,-161.03 859.83,-124.07"/>
</g>
<!-- 34&#45;&#45;16 -->
<g id="edge75" class="edge">
<title>34&#45;&#45;16</title>
<path fill="none" stroke="#17c30a" stroke-width="2" d="M801.82,-287.56C848.94,-262.23 952.88,-206.33 1002.27,-179.78"/>
</g>
<!-- 34&#45;&#45;19 -->
<g id="edge76" class="edge">
<title>34&#45;&#45;19</title>
<path fill="none" stroke="#2b00fc" stroke-width="2" d="M810.57,-296.51C878.75,-288.15 1034.39,-269.07 1097.01,-261.39"/>
</g>
<!-- 34&#45;&#45;21 -->
<g id="edge77" class="edge">
<title>34&#45;&#45;21</title>
<path fill="none" stroke="#17c30a" stroke-width="2" d="M792.46,-284C835.06,-236.3 957.79,-98.87 999.63,-52.03"/>
</g>
<!-- 34&#45;&#45;23 -->
<g id="edge78" class="edge">
<title>34&#45;&#45;23</title>
<path fill="none" stroke="black" stroke-width="2" d="M784.45,-282.88C803.79,-232.32 859.25,-87.32 878.76,-36.32"/>
</g>
<!-- 2 -->
<g id="node1" class="node">
<title>2</title>
<ellipse fill="cornflowerblue" stroke="black" cx="479.4" cy="-201.39" rx="31.74" ry="18"/>
<text text-anchor="middle" x="479.4" y="-198.59" font-family="Arial" font-size="11.00">Newton</text>
</g>
<!-- 1 -->
<g id="node2" class="node">
<title>1</title>
<ellipse fill="cornflowerblue" stroke="black" cx="368.05" cy="-339.58" rx="33.15" ry="18"/>
<text text-anchor="middle" x="368.05" y="-336.78" font-family="Arial" font-size="11.00">da Vinci</text>
</g>
<!-- 3 -->
<g id="node3" class="node">
<title>3</title>
<ellipse fill="cornflowerblue" stroke="black" cx="640.05" cy="-414.78" rx="33.85" ry="18"/>
<text text-anchor="middle" x="640.05" y="-411.98" font-family="Arial" font-size="11.00">Aristotle</text>
</g>
<!-- 4 -->
<g id="node4" class="node">
<title>4</title>
<ellipse fill="cornflowerblue" stroke="black" cx="433.99" cy="-393.9" rx="33.85" ry="18"/>
<text text-anchor="middle" x="433.99" y="-391.1" font-family="Arial" font-size="11.00">Ptolemy</text>
</g>
<!-- 5 -->
<g id="node5" class="node">
<title>5</title>
<ellipse fill="chocolate" stroke="black" cx="167.14" cy="-485.2" rx="36.86" ry="18"/>
<text text-anchor="middle" x="167.14" y="-482.4" font-family="Arial" font-size="11.00">Avicenna</text>
</g>
<!-- 6 -->
<g id="node6" class="node">
<title>6</title>
<ellipse fill="cornflowerblue" stroke="black" cx="175.96" cy="-200.33" rx="45.2" ry="18"/>
<text text-anchor="middle" x="175.96" y="-197.53" font-family="Arial" font-size="11.00">Hippocratus</text>
</g>
<!-- 7 -->
<g id="node7" class="node">
<title>7</title>
<ellipse fill="cornflowerblue" stroke="black" cx="105.7" cy="-288.11" rx="39.88" ry="18"/>
<text text-anchor="middle" x="105.7" y="-285.31" font-family="Arial" font-size="11.00">Paracelus</text>
</g>
<!-- 8 -->
<g id="node8" class="node">
<title>8</title>
<ellipse fill="cornflowerblue" stroke="black" cx="510.53" cy="-564.38" rx="30.13" ry="18"/>
<text text-anchor="middle" x="510.53" y="-561.58" font-family="Arial" font-size="11.00">Galileo</text>
</g>
<!-- 9 -->
<g id="node9" class="node">
<title>9</title>
<ellipse fill="lightgrey" stroke="black" cx="671.6" cy="-251.94" rx="28.73" ry="18"/>
<text text-anchor="middle" x="671.6" y="-249.14" font-family="Arial" font-size="11.00">Kepler</text>
</g>
<!-- 10 -->
<g id="node10" class="node">
<title>10</title>
<ellipse fill="chocolate" stroke="black" cx="669.98" cy="-86" rx="27" ry="18"/>
<text text-anchor="middle" x="669.98" y="-83.2" font-family="Arial" font-size="11.00">Boyle</text>
</g>
<!-- 11 -->
<g id="node11" class="node">
<title>11</title>
<ellipse fill="chocolate" stroke="black" cx="266.1" cy="-289.88" rx="28.03" ry="18"/>
<text text-anchor="middle" x="266.1" y="-287.08" font-family="Arial" font-size="11.00">Hooke</text>
</g>
<!-- 12 -->
<g id="node12" class="node">
<title>12</title>
<ellipse fill="chocolate" stroke="black" cx="256.81" cy="-469.14" rx="38.47" ry="18"/>
<text text-anchor="middle" x="256.81" y="-466.34" font-family="Arial" font-size="11.00">Asclepius</text>
</g>
<!-- 13 -->
<g id="node13" class="node">
<title>13</title>
<ellipse fill="chocolate" stroke="black" cx="417.68" cy="-616.99" rx="40.78" ry="18"/>
<text text-anchor="middle" x="417.68" y="-614.19" font-family="Arial" font-size="11.00">Cavendish</text>
</g>
<!-- 14 -->
<g id="node14" class="node">
<title>14</title>
<ellipse fill="lightgrey" stroke="black" cx="569.26" cy="-351.01" rx="31.74" ry="18"/>
<text text-anchor="middle" x="569.26" y="-348.21" font-family="Arial" font-size="11.00">Priestly</text>
</g>
<!-- 17 -->
<g id="node15" class="node">
<title>17</title>
<ellipse fill="chocolate" stroke="black" cx="31.51" cy="-175.62" rx="31.74" ry="18"/>
<text text-anchor="middle" x="31.51" y="-172.82" font-family="Arial" font-size="11.00">Galvani</text>
</g>
<!-- 18 -->
<g id="node16" class="node">
<title>18</title>
<ellipse fill="chocolate" stroke="black" cx="327.94" cy="-182.98" rx="36.16" ry="18"/>
<text text-anchor="middle" x="327.94" y="-180.18" font-family="Arial" font-size="11.00">Herschel</text>
</g>
<!-- 20 -->
<g id="node17" class="node">
<title>20</title>
<polygon fill="lightgrey" stroke="black" points="627.79,-152 573.79,-152 573.79,-116 627.79,-116 627.79,-152"/>
<text text-anchor="middle" x="600.79" y="-131.2" font-family="Arial" font-size="11.00">Curie</text>
</g>
<!-- 22 -->
<g id="node18" class="node">
<title>22</title>
<ellipse fill="chocolate" stroke="black" cx="472.21" cy="-39.05" rx="30.13" ry="18"/>
<text text-anchor="middle" x="472.21" y="-36.25" font-family="Arial" font-size="11.00">Jenner</text>
</g>
<!-- 26 -->
<g id="node19" class="node">
<title>26</title>
<ellipse fill="chocolate" stroke="black" cx="971.28" cy="-591.94" rx="28.73" ry="18"/>
<text text-anchor="middle" x="971.28" y="-589.14" font-family="Arial" font-size="11.00">Dalton</text>
</g>
<!-- 24 -->
<g id="node20" class="node">
<title>24</title>
<ellipse fill="cornflowerblue" stroke="black" cx="885.86" cy="-487.63" rx="28.73" ry="18"/>
<text text-anchor="middle" x="885.86" y="-484.83" font-family="Arial" font-size="11.00">Cuvier</text>
</g>
<!-- 25 -->
<g id="node21" class="node">
<title>25</title>
<ellipse fill="cornflowerblue" stroke="black" cx="785.23" cy="-711.67" rx="30.84" ry="18"/>
<text text-anchor="middle" x="785.23" y="-708.87" font-family="Arial" font-size="11.00">Darwin</text>
</g>
<!-- 28 -->
<g id="node22" class="node">
<title>28</title>
<ellipse fill="lightgrey" stroke="black" cx="783.19" cy="-501.26" rx="27" ry="18"/>
<text text-anchor="middle" x="783.19" y="-498.46" font-family="Arial" font-size="11.00">Davy</text>
</g>
<!-- 29 -->
<g id="node23" class="node">
<title>29</title>
<ellipse fill="cornflowerblue" stroke="black" cx="598.21" cy="-520.37" rx="30.84" ry="18"/>
<text text-anchor="middle" x="598.21" y="-517.57" font-family="Arial" font-size="11.00">Mendel</text>
</g>
<!-- 30 -->
<g id="node24" class="node">
<title>30</title>
<ellipse fill="chocolate" stroke="black" cx="1014.37" cy="-314.69" rx="37.77" ry="18"/>
<text text-anchor="middle" x="1014.37" y="-311.89" font-family="Arial" font-size="11.00">Thomson</text>
</g>
<!-- 27 -->
<g id="node25" class="node">
<title>27</title>
<ellipse fill="lightgrey" stroke="black" cx="1118.19" cy="-465.88" rx="33.15" ry="18"/>
<text text-anchor="middle" x="1118.19" y="-463.08" font-family="Arial" font-size="11.00">Maxwell</text>
</g>
<!-- 31 -->
<g id="node26" class="node">
<title>31</title>
<ellipse fill="lightgrey" stroke="black" cx="692.44" cy="-171.94" rx="27" ry="18"/>
<text text-anchor="middle" x="692.44" y="-169.14" font-family="Arial" font-size="11.00">Koch</text>
</g>
<!-- 32 -->
<g id="node27" class="node">
<title>32</title>
<polygon fill="cornflowerblue" stroke="black" points="813.74,-428.89 759.74,-428.89 759.74,-392.89 813.74,-392.89 813.74,-428.89"/>
<text text-anchor="middle" x="786.74" y="-408.09" font-family="Arial" font-size="11.00">Carson</text>
</g>
<!-- 33 -->
<g id="node28" class="node">
<title>33</title>
<ellipse fill="cornflowerblue" stroke="black" cx="840.86" cy="-255.19" rx="33.85" ry="18"/>
<text text-anchor="middle" x="840.86" y="-252.39" font-family="Arial" font-size="11.00">Fleming</text>
</g>
<!-- 15 -->
<g id="node29" class="node">
<title>15</title>
<ellipse fill="cornflowerblue" stroke="black" cx="868.06" cy="-106.4" rx="34.76" ry="18"/>
<text text-anchor="middle" x="868.06" y="-103.6" font-family="Arial" font-size="11.00">Hawking</text>
</g>
<!-- 16 -->
<g id="node30" class="node">
<title>16</title>
<polygon fill="lightgrey" stroke="black" points="1056.35,-183.22 1002.35,-183.22 1002.35,-147.22 1056.35,-147.22 1056.35,-183.22"/>
<text text-anchor="middle" x="1029.35" y="-162.42" font-family="Arial" font-size="11.00">Goodall</text>
</g>
<!-- 19 -->
<g id="node31" class="node">
<title>19</title>
<ellipse fill="lightgrey" stroke="black" cx="1123.85" cy="-258.1" rx="27.12" ry="18"/>
<text text-anchor="middle" x="1123.85" y="-255.3" font-family="Arial" font-size="11.00">Gould</text>
</g>
<!-- 21 -->
<g id="node32" class="node">
<title>21</title>
<ellipse fill="chocolate" stroke="black" cx="1013.79" cy="-36.17" rx="28.03" ry="18"/>
<text text-anchor="middle" x="1013.79" y="-33.37" font-family="Arial" font-size="11.00">Pinker</text>
</g>
<!-- 23 -->
<g id="node33" class="node">
<title>23</title>
<polygon fill="chocolate" stroke="black" points="912.65,-36.31 858.65,-36.31 858.65,-0.31 912.65,-0.31 912.65,-36.31"/>
<text text-anchor="middle" x="885.65" y="-15.51" font-family="Arial" font-size="11.00">Mead</text>
</g>
<!-- 34 -->
<g id="node34" class="node">
<title>34</title>
<ellipse fill="cornflowerblue" stroke="black" cx="777.69" cy="-300.54" rx="33.85" ry="18"/>
<text text-anchor="middle" x="777.69" y="-297.74" font-family="Arial" font-size="11.00">Einstein</text>
</g>
</g>
</svg>
