<?xml version="1.0" encoding="UTF-8" standalone="no"?>
<!DOCTYPE svg PUBLIC "-//W3C//DTD SVG 1.1//EN"
 "http://www.w3.org/Graphics/SVG/1.1/DTD/svg11.dtd">
<!-- Generated by graphviz version 2.49.1 (20210923.0004)
 -->
<!-- Title: G Pages: 1 -->
<svg width="1851pt" height="1363pt"
 viewBox="0.00 0.00 1850.50 1363.42" xmlns="http://www.w3.org/2000/svg" xmlns:xlink="http://www.w3.org/1999/xlink">
<g id="graph0" class="graph" transform="scale(1 1) rotate(0) translate(4 1359.42)">
<title>G</title>
<polygon fill="white" stroke="transparent" points="-4,4 -4,-1359.42 1846.5,-1359.42 1846.5,4 -4,4"/>
<!-- 2&#45;&#45;1 -->
<g id="edge1" class="edge">
<title>2&#45;&#45;1</title>
<path fill="none" stroke="#17c30a" stroke-width="2" d="M1383.86,-685.54C1439.91,-700.78 1563.12,-734.28 1619.95,-749.74"/>
</g>
<!-- 3&#45;&#45;2 -->
<g id="edge2" class="edge">
<title>3&#45;&#45;2</title>
<path fill="none" stroke="#2b00fc" stroke-width="2" d="M823.04,-43.66C899.59,-134.88 1265.69,-571.19 1341.37,-661.38"/>
</g>
<!-- 3&#45;&#45;1 -->
<g id="edge3" class="edge">
<title>3&#45;&#45;1</title>
<path fill="none" stroke="#17c30a" stroke-width="2" d="M826.95,-42.53C937.25,-138.42 1522.13,-646.9 1631.95,-742.38"/>
</g>
<!-- 4&#45;&#45;2 -->
<g id="edge4" class="edge">
<title>4&#45;&#45;2</title>
<path fill="none" stroke="#17c30a" stroke-width="2" d="M1097.72,-165.28C1138.28,-246.03 1305.98,-579.96 1346.32,-660.28"/>
</g>
<!-- 4&#45;&#45;1 -->
<g id="edge5" class="edge">
<title>4&#45;&#45;1</title>
<path fill="none" stroke="#2b00fc" stroke-width="2" d="M1103.87,-163.97C1183.39,-250.48 1555.04,-654.82 1634.68,-741.46"/>
</g>
<!-- 4&#45;&#45;3 -->
<g id="edge6" class="edge">
<title>4&#45;&#45;3</title>
<path fill="none" stroke="#17c30a" stroke-width="2" d="M1062.54,-136.29C1009.2,-113.28 888.91,-61.39 835.46,-38.34"/>
</g>
<!-- 5&#45;&#45;1 -->
<g id="edge7" class="edge">
<title>5&#45;&#45;1</title>
<path fill="none" stroke="black" stroke-width="2" d="M1543.88,-532.95C1565.06,-577.95 1620.44,-695.62 1641.47,-740.29"/>
</g>
<!-- 6&#45;&#45;1 -->
<g id="edge8" class="edge">
<title>6&#45;&#45;1</title>
<path fill="none" stroke="#17c30a" stroke-width="2" d="M1760.49,-705.7C1735.13,-717.64 1698.88,-734.7 1674.85,-746.01"/>
</g>
<!-- 7&#45;&#45;1 -->
<g id="edge9" class="edge">
<title>7&#45;&#45;1</title>
<path fill="none" stroke="black" stroke-width="2" d="M1790.8,-554.81C1762.12,-596.09 1689.89,-700.03 1661.48,-740.93"/>
</g>
<!-- 7&#45;&#45;5 -->
<g id="edge10" class="edge">
<title>7&#45;&#45;5</title>
<path fill="none" stroke="#fc0800" stroke-width="2" d="M1763.66,-534.24C1712.02,-529.91 1621.88,-522.35 1571.74,-518.14"/>
</g>
<!-- 7&#45;&#45;6 -->
<g id="edge11" class="edge">
<title>7&#45;&#45;6</title>
<path fill="none" stroke="#17c30a" stroke-width="2" d="M1801.31,-555.53C1798.83,-585.11 1793.91,-643.68 1791.41,-673.5"/>
</g>
<!-- 8&#45;&#45;2 -->
<g id="edge12" class="edge">
<title>8&#45;&#45;2</title>
<path fill="none" stroke="#2b00fc" stroke-width="2" d="M1289.07,-399.24C1301.65,-452.31 1338.33,-607.07 1350.84,-659.84"/>
</g>
<!-- 8&#45;&#45;1 -->
<g id="edge13" class="edge">
<title>8&#45;&#45;1</title>
<path fill="none" stroke="#17c30a" stroke-width="2" d="M1300,-396.84C1359.22,-457.97 1574,-679.66 1634.04,-741.64"/>
</g>
<!-- 8&#45;&#45;3 -->
<g id="edge14" class="edge">
<title>8&#45;&#45;3</title>
<path fill="none" stroke="black" stroke-width="2" d="M1265.84,-367.03C1189.71,-310.35 906.42,-99.45 828.78,-41.65"/>
</g>
<!-- 8&#45;&#45;4 -->
<g id="edge15" class="edge">
<title>8&#45;&#45;4</title>
<path fill="none" stroke="#17c30a" stroke-width="2" d="M1271.01,-364.71C1235.12,-321.95 1139.05,-207.45 1102.89,-164.36"/>
</g>
<!-- 9&#45;&#45;1 -->
<g id="edge16" class="edge">
<title>9&#45;&#45;1</title>
<path fill="none" stroke="#2b00fc" stroke-width="2" d="M1218.92,-1088.33C1291.4,-1032.72 1556.31,-829.5 1630.38,-772.68"/>
</g>
<!-- 9&#45;&#45;3 -->
<g id="edge17" class="edge">
<title>9&#45;&#45;3</title>
<path fill="none" stroke="black" stroke-width="2" d="M1194,-1084.71C1147.33,-956.48 862.51,-173.95 815.55,-44.93"/>
</g>
<!-- 10&#45;&#45;3 -->
<g id="edge18" class="edge">
<title>10&#45;&#45;3</title>
<path fill="none" stroke="#17c30a" stroke-width="2" d="M682.85,-19.57C708.62,-21.08 747.5,-23.34 775.28,-24.96"/>
</g>
<!-- 11&#45;&#45;1 -->
<g id="edge19" class="edge">
<title>11&#45;&#45;1</title>
<path fill="none" stroke="black" stroke-width="2" d="M1541.85,-682.87C1565.34,-699.2 1604.83,-726.64 1628.96,-743.4"/>
</g>
<!-- 11&#45;&#45;5 -->
<g id="edge20" class="edge">
<title>11&#45;&#45;5</title>
<path fill="none" stroke="#17c30a" stroke-width="2" d="M1524.04,-651.44C1526.52,-621.86 1531.44,-563.29 1533.94,-533.47"/>
</g>
<!-- 11&#45;&#45;6 -->
<g id="edge21" class="edge">
<title>11&#45;&#45;6</title>
<path fill="none" stroke="#2b00fc" stroke-width="2" d="M1550.64,-671.81C1597.02,-675.7 1689.97,-683.49 1745.36,-688.14"/>
</g>
<!-- 12&#45;&#45;1 -->
<g id="edge22" class="edge">
<title>12&#45;&#45;1</title>
<path fill="none" stroke="black" stroke-width="2" d="M1642.02,-849.75C1643.73,-829.35 1646.49,-796.45 1648.2,-776.04"/>
</g>
<!-- 13&#45;&#45;1 -->
<g id="edge23" class="edge">
<title>13&#45;&#45;1</title>
<path fill="none" stroke="#17c30a" stroke-width="2" d="M1215.42,-269.74C1283.93,-346.74 1567.51,-665.43 1635.18,-741.48"/>
</g>
<!-- 13&#45;&#45;4 -->
<g id="edge24" class="edge">
<title>13&#45;&#45;4</title>
<path fill="none" stroke="black" stroke-width="2" d="M1183.03,-236.49C1161.94,-216.59 1126.68,-183.32 1105.82,-163.64"/>
</g>
<!-- 14&#45;&#45;2 -->
<g id="edge29" class="edge">
<title>14&#45;&#45;2</title>
<path fill="none" stroke="#2b00fc" stroke-width="2" d="M967.29,-88.11C1025,-175.86 1286.39,-573.28 1343.87,-660.68"/>
</g>
<!-- 14&#45;&#45;1 -->
<g id="edge30" class="edge">
<title>14&#45;&#45;1</title>
<path fill="none" stroke="#17c30a" stroke-width="2" d="M971.78,-86.56C1064.76,-178.63 1539.92,-649.11 1633.66,-741.92"/>
</g>
<!-- 14&#45;&#45;3 -->
<g id="edge31" class="edge">
<title>14&#45;&#45;3</title>
<path fill="none" stroke="black" stroke-width="2" d="M927.65,-62.44C902.03,-54.77 864.48,-43.53 838.51,-35.76"/>
</g>
<!-- 14&#45;&#45;4 -->
<g id="edge32" class="edge">
<title>14&#45;&#45;4</title>
<path fill="none" stroke="#17c30a" stroke-width="2" d="M978.53,-83.94C1002.81,-97.96 1041.27,-120.16 1065.77,-134.31"/>
</g>
<!-- 17&#45;&#45;6 -->
<g id="edge25" class="edge">
<title>17&#45;&#45;6</title>
<path fill="none" stroke="#17c30a" stroke-width="2" d="M1683.83,-466.59C1704.81,-511.16 1760.19,-628.81 1781.42,-673.92"/>
</g>
<!-- 17&#45;&#45;7 -->
<g id="edge26" class="edge">
<title>17&#45;&#45;7</title>
<path fill="none" stroke="black" stroke-width="2" d="M1695.77,-463.14C1719.03,-479.3 1757.13,-505.78 1781.05,-522.4"/>
</g>
<!-- 18&#45;&#45;2 -->
<g id="edge27" class="edge">
<title>18&#45;&#45;2</title>
<path fill="none" stroke="#17c30a" stroke-width="2" d="M1289.07,-956.18C1301.65,-903.11 1338.33,-748.35 1350.84,-695.58"/>
</g>
<!-- 18&#45;&#45;1 -->
<g id="edge28" class="edge">
<title>18&#45;&#45;1</title>
<path fill="none" stroke="black" stroke-width="2" d="M1308.17,-960.42C1374.24,-921.23 1561.76,-810.01 1627.01,-771.31"/>
</g>
<!-- 20&#45;&#45;2 -->
<g id="edge33" class="edge">
<title>20&#45;&#45;2</title>
<path fill="none" stroke="#fc0800" stroke-width="2" d="M1339.37,-543.39C1342.8,-572.72 1349.54,-630.34 1352.96,-659.65"/>
</g>
<!-- 20&#45;&#45;1 -->
<g id="edge34" class="edge">
<title>20&#45;&#45;1</title>
<path fill="none" stroke="#17c30a" stroke-width="2" d="M1361.52,-543.37C1421.31,-587.86 1574.89,-702.14 1629.82,-743.02"/>
</g>
<!-- 22&#45;&#45;2 -->
<g id="edge35" class="edge">
<title>22&#45;&#45;2</title>
<path fill="none" stroke="#2b00fc" stroke-width="2" d="M1339.37,-812.03C1342.8,-782.7 1349.54,-725.08 1352.96,-695.77"/>
</g>
<!-- 22&#45;&#45;1 -->
<g id="edge36" class="edge">
<title>22&#45;&#45;1</title>
<path fill="none" stroke="#17c30a" stroke-width="2" d="M1365.54,-823.57C1424.13,-810.02 1558.35,-778.97 1618.99,-764.94"/>
</g>
<!-- 26&#45;&#45;24 -->
<g id="edge37" class="edge">
<title>26&#45;&#45;24</title>
<path fill="none" stroke="#fc0800" stroke-width="2" d="M69,-469.7C62.2,-498.4 48.98,-554.18 42.17,-582.92"/>
</g>
<!-- 26&#45;&#45;25 -->
<g id="edge38" class="edge">
<title>26&#45;&#45;25</title>
<path fill="none" stroke="black" stroke-width="2" d="M84.26,-434.99C114.53,-388.95 198.92,-260.64 229.51,-214.15"/>
</g>
<!-- 28&#45;&#45;3 -->
<g id="edge39" class="edge">
<title>28&#45;&#45;3</title>
<path fill="none" stroke="#17c30a" stroke-width="2" d="M390.02,-100.8C467.08,-87.21 692.95,-47.38 777,-32.56"/>
</g>
<!-- 28&#45;&#45;24 -->
<g id="edge40" class="edge">
<title>28&#45;&#45;24</title>
<path fill="none" stroke="#2b00fc" stroke-width="2" d="M352.99,-121.91C303.44,-197.23 98.91,-508.21 48.94,-584.19"/>
</g>
<!-- 28&#45;&#45;25 -->
<g id="edge41" class="edge">
<title>28&#45;&#45;25</title>
<path fill="none" stroke="#fc0800" stroke-width="2" d="M345.67,-118.94C322.67,-136.06 283.22,-165.43 259.8,-182.86"/>
</g>
<!-- 29&#45;&#45;3 -->
<g id="edge42" class="edge">
<title>29&#45;&#45;3</title>
<path fill="none" stroke="#fc0800" stroke-width="2" d="M535.29,-42.86C592.55,-39.53 715.59,-32.36 775.22,-28.89"/>
</g>
<!-- 30&#45;&#45;24 -->
<g id="edge43" class="edge">
<title>30&#45;&#45;24</title>
<path fill="none" stroke="#2b00fc" stroke-width="2" d="M37.88,-736.23C37.88,-706.7 37.88,-648.69 37.88,-619.17"/>
</g>
<!-- 30&#45;&#45;27 -->
<g id="edge44" class="edge">
<title>30&#45;&#45;27</title>
<path fill="none" stroke="#17c30a" stroke-width="2" d="M42.15,-772.44C48.95,-801.13 62.17,-856.92 68.99,-885.66"/>
</g>
<!-- 31&#45;&#45;2 -->
<g id="edge45" class="edge">
<title>31&#45;&#45;2</title>
<path fill="none" stroke="black" stroke-width="2" d="M1097.57,-1190.44C1137.85,-1110.24 1305.88,-775.67 1346.3,-695.18"/>
</g>
<!-- 31&#45;&#45;9 -->
<g id="edge46" class="edge">
<title>31&#45;&#45;9</title>
<path fill="none" stroke="#fc0800" stroke-width="2" d="M1104.86,-1192.69C1126.07,-1172.68 1163.31,-1137.54 1184.51,-1117.54"/>
</g>
<!-- 32&#45;&#45;1 -->
<g id="edge47" class="edge">
<title>32&#45;&#45;1</title>
<path fill="none" stroke="#2b00fc" stroke-width="2" d="M169.26,-322.56C354.29,-376.96 1428.91,-692.91 1620.51,-749.24"/>
</g>
<!-- 32&#45;&#45;26 -->
<g id="edge48" class="edge">
<title>32&#45;&#45;26</title>
<path fill="none" stroke="#17c30a" stroke-width="2" d="M132.99,-332.79C119.67,-359.3 95.1,-408.22 82.02,-434.28"/>
</g>
<!-- 32&#45;&#45;25 -->
<g id="edge49" class="edge">
<title>32&#45;&#45;25</title>
<path fill="none" stroke="black" stroke-width="2" d="M157.32,-296.47C176.34,-273.8 208.65,-235.31 226.98,-213.46"/>
</g>
<!-- 32&#45;&#45;29 -->
<g id="edge50" class="edge">
<title>32&#45;&#45;29</title>
<path fill="none" stroke="#17c30a" stroke-width="2" d="M166.48,-296.45C234.28,-245.97 424.25,-104.55 485.45,-58.99"/>
</g>
<!-- 33&#45;&#45;3 -->
<g id="edge51" class="edge">
<title>33&#45;&#45;3</title>
<path fill="none" stroke="#2b00fc" stroke-width="2" d="M953.85,-1266.23C937.15,-1123.36 827.68,-186.77 811.1,-44.91"/>
</g>
<!-- 33&#45;&#45;9 -->
<g id="edge52" class="edge">
<title>33&#45;&#45;9</title>
<path fill="none" stroke="black" stroke-width="2" d="M975.99,-1269.6C1022.41,-1235.05 1136.88,-1149.83 1181.88,-1116.33"/>
</g>
<!-- 33&#45;&#45;24 -->
<g id="edge53" class="edge">
<title>33&#45;&#45;24</title>
<path fill="none" stroke="#17c30a" stroke-width="2" d="M935.96,-1269.58C814.15,-1178.9 174.19,-702.47 56.49,-614.85"/>
</g>
<!-- 33&#45;&#45;30 -->
<g id="edge54" class="edge">
<title>33&#45;&#45;30</title>
<path fill="none" stroke="black" stroke-width="2" d="M932.83,-1271.13C805.6,-1197.67 192.5,-843.69 62.24,-768.49"/>
</g>
<!-- 33&#45;&#45;31 -->
<g id="edge55" class="edge">
<title>33&#45;&#45;31</title>
<path fill="none" stroke="#2b00fc" stroke-width="2" d="M979.13,-1271.13C1004.26,-1256.62 1044.04,-1233.66 1068.17,-1219.73"/>
</g>
<!-- 33&#45;&#45;32 -->
<g id="edge56" class="edge">
<title>33&#45;&#45;32</title>
<path fill="none" stroke="#17c30a" stroke-width="2" d="M942.2,-1268.07C844.65,-1151.82 259.44,-454.38 157.32,-332.69"/>
</g>
<!-- 33&#45;&#45;15 -->
<g id="edge57" class="edge">
<title>33&#45;&#45;15</title>
<path fill="none" stroke="#fc0800" stroke-width="2" d="M923.86,-1278.83C805.49,-1257.96 394.26,-1185.45 274.02,-1164.25"/>
</g>
<!-- 33&#45;&#45;16 -->
<g id="edge58" class="edge">
<title>33&#45;&#45;16</title>
<path fill="none" stroke="#2b00fc" stroke-width="2" d="M922.45,-1282.54C816.15,-1276.35 487.96,-1257.24 391.05,-1251.59"/>
</g>
<!-- 33&#45;&#45;19 -->
<g id="edge59" class="edge">
<title>33&#45;&#45;19</title>
<path fill="none" stroke="#17c30a" stroke-width="2" d="M922.44,-1286.45C836.54,-1291.45 609.98,-1304.65 531.74,-1309.2"/>
</g>
<!-- 33&#45;&#45;21 -->
<g id="edge60" class="edge">
<title>33&#45;&#45;21</title>
<path fill="none" stroke="black" stroke-width="2" d="M923.86,-1290.16C864.58,-1300.61 738.95,-1322.76 683.32,-1332.57"/>
</g>
<!-- 33&#45;&#45;23 -->
<g id="edge61" class="edge">
<title>33&#45;&#45;23</title>
<path fill="none" stroke="black" stroke-width="2" d="M926.59,-1293.29C900.29,-1301.17 862.02,-1312.63 836.35,-1320.31"/>
</g>
<!-- 34&#45;&#45;9 -->
<g id="edge62" class="edge">
<title>34&#45;&#45;9</title>
<path fill="none" stroke="black" stroke-width="2" d="M175.85,-1042.81C336.45,-1052.16 1022.26,-1092.1 1171.66,-1100.81"/>
</g>
<!-- 34&#45;&#45;10 -->
<g id="edge63" class="edge">
<title>34&#45;&#45;10</title>
<path fill="none" stroke="#17c30a" stroke-width="2" d="M151.05,-1023.09C213.53,-898.67 585.09,-158.84 647.06,-35.44"/>
</g>
<!-- 34&#45;&#45;14 -->
<g id="edge64" class="edge">
<title>34&#45;&#45;14</title>
<path fill="none" stroke="black" stroke-width="2" d="M155.91,-1024.42C253.88,-907.66 843.7,-204.75 942.08,-87.5"/>
</g>
<!-- 34&#45;&#45;20 -->
<g id="edge65" class="edge">
<title>34&#45;&#45;20</title>
<path fill="none" stroke="#17c30a" stroke-width="2" d="M168.49,-1029.47C326.73,-961.21 1149.29,-606.4 1310.01,-537.07"/>
</g>
<!-- 34&#45;&#45;24 -->
<g id="edge66" class="edge">
<title>34&#45;&#45;24</title>
<path fill="none" stroke="#17c30a" stroke-width="2" d="M137.85,-1022.78C120.95,-951.49 59,-690.09 42.14,-618.96"/>
</g>
<!-- 34&#45;&#45;28 -->
<g id="edge67" class="edge">
<title>34&#45;&#45;28</title>
<path fill="none" stroke="#2b00fc" stroke-width="2" d="M146.46,-1022.58C174.63,-903.72 331.59,-241.46 359.56,-123.42"/>
</g>
<!-- 34&#45;&#45;29 -->
<g id="edge68" class="edge">
<title>34&#45;&#45;29</title>
<path fill="none" stroke="#17c30a" stroke-width="2" d="M148.58,-1023.13C193.04,-900.96 453.78,-184.6 498.26,-62.37"/>
</g>
<!-- 34&#45;&#45;30 -->
<g id="edge69" class="edge">
<title>34&#45;&#45;30</title>
<path fill="none" stroke="#2b00fc" stroke-width="2" d="M135.61,-1022.93C116.89,-971.49 63.12,-823.77 44.4,-772.34"/>
</g>
<!-- 34&#45;&#45;27 -->
<g id="edge70" class="edge">
<title>34&#45;&#45;27</title>
<path fill="none" stroke="#17c30a" stroke-width="2" d="M133.27,-1023.2C120.05,-996.87 95.3,-947.59 82.1,-921.31"/>
</g>
<!-- 34&#45;&#45;31 -->
<g id="edge71" class="edge">
<title>34&#45;&#45;31</title>
<path fill="none" stroke="black" stroke-width="2" d="M174.17,-1046.49C320.98,-1072.38 927.93,-1179.4 1062.4,-1203.11"/>
</g>
<!-- 34&#45;&#45;32 -->
<g id="edge72" class="edge">
<title>34&#45;&#45;32</title>
<path fill="none" stroke="#fc0800" stroke-width="2" d="M142.13,-1022.53C142.13,-921.55 142.13,-433.7 142.13,-332.85"/>
</g>
<!-- 34&#45;&#45;33 -->
<g id="edge73" class="edge">
<title>34&#45;&#45;33</title>
<path fill="none" stroke="#17c30a" stroke-width="2" d="M171.58,-1049.66C298.68,-1087.71 799.56,-1237.66 926.58,-1275.69"/>
</g>
<!-- 34&#45;&#45;15 -->
<g id="edge74" class="edge">
<title>34&#45;&#45;15</title>
<path fill="none" stroke="black" stroke-width="2" d="M156.05,-1057.43C174.74,-1079.71 207.77,-1119.07 226.59,-1141.49"/>
</g>
<!-- 34&#45;&#45;16 -->
<g id="edge75" class="edge">
<title>34&#45;&#45;16</title>
<path fill="none" stroke="#17c30a" stroke-width="2" d="M158.79,-1056.56C199.07,-1094.57 301.56,-1191.26 344.47,-1231.74"/>
</g>
<!-- 34&#45;&#45;19 -->
<g id="edge76" class="edge">
<title>34&#45;&#45;19</title>
<path fill="none" stroke="#2b00fc" stroke-width="2" d="M161.88,-1055.55C225.58,-1102.97 424.98,-1251.41 486.47,-1297.2"/>
</g>
<!-- 34&#45;&#45;21 -->
<g id="edge77" class="edge">
<title>34&#45;&#45;21</title>
<path fill="none" stroke="#17c30a" stroke-width="2" d="M165.2,-1054.16C251.2,-1103.81 552.38,-1277.7 634.82,-1325.3"/>
</g>
<!-- 34&#45;&#45;23 -->
<g id="edge78" class="edge">
<title>34&#45;&#45;23</title>
<path fill="none" stroke="black" stroke-width="2" d="M168.68,-1052.3C275.51,-1098.38 673.35,-1269.99 781.64,-1316.7"/>
</g>
<!-- 2 -->
<g id="node1" class="node">
<title>2</title>
<ellipse fill="cornflowerblue" stroke="black" cx="1355.07" cy="-677.71" rx="31.74" ry="18"/>
<text text-anchor="middle" x="1355.07" y="-674.91" font-family="Arial" font-size="11.00">Newton</text>
</g>
<!-- 1 -->
<g id="node2" class="node">
<title>1</title>
<ellipse fill="cornflowerblue" stroke="black" cx="1649.73" cy="-757.83" rx="33.15" ry="18"/>
<text text-anchor="middle" x="1649.73" y="-755.03" font-family="Arial" font-size="11.00">da Vinci</text>
</g>
<!-- 3 -->
<g id="node3" class="node">
<title>3</title>
<ellipse fill="cornflowerblue" stroke="black" cx="809" cy="-26.92" rx="33.85" ry="18"/>
<text text-anchor="middle" x="809" y="-24.12" font-family="Arial" font-size="11.00">Aristotle</text>
</g>
<!-- 4 -->
<g id="node4" class="node">
<title>4</title>
<ellipse fill="cornflowerblue" stroke="black" cx="1088.87" cy="-147.64" rx="33.85" ry="18"/>
<text text-anchor="middle" x="1088.87" y="-144.84" font-family="Arial" font-size="11.00">Ptolemy</text>
</g>
<!-- 5 -->
<g id="node5" class="node">
<title>5</title>
<ellipse fill="chocolate" stroke="black" cx="1535.48" cy="-515.1" rx="36.86" ry="18"/>
<text text-anchor="middle" x="1535.48" y="-512.3" font-family="Arial" font-size="11.00">Avicenna</text>
</g>
<!-- 6 -->
<g id="node6" class="node">
<title>6</title>
<ellipse fill="cornflowerblue" stroke="black" cx="1789.87" cy="-691.87" rx="45.2" ry="18"/>
<text text-anchor="middle" x="1789.87" y="-689.07" font-family="Arial" font-size="11.00">Hippocratus</text>
</g>
<!-- 7 -->
<g id="node7" class="node">
<title>7</title>
<ellipse fill="cornflowerblue" stroke="black" cx="1802.82" cy="-537.52" rx="39.88" ry="18"/>
<text text-anchor="middle" x="1802.82" y="-534.72" font-family="Arial" font-size="11.00">Paracelus</text>
</g>
<!-- 8 -->
<g id="node8" class="node">
<title>8</title>
<ellipse fill="cornflowerblue" stroke="black" cx="1284.78" cy="-381.13" rx="30.13" ry="18"/>
<text text-anchor="middle" x="1284.78" y="-378.33" font-family="Arial" font-size="11.00">Galileo</text>
</g>
<!-- 9 -->
<g id="node9" class="node">
<title>9</title>
<ellipse fill="lightgrey" stroke="black" cx="1200.47" cy="-1102.48" rx="28.73" ry="18"/>
<text text-anchor="middle" x="1200.47" y="-1099.68" font-family="Arial" font-size="11.00">Kepler</text>
</g>
<!-- 10 -->
<g id="node10" class="node">
<title>10</title>
<ellipse fill="chocolate" stroke="black" cx="655.82" cy="-18" rx="27" ry="18"/>
<text text-anchor="middle" x="655.82" y="-15.2" font-family="Arial" font-size="11.00">Boyle</text>
</g>
<!-- 11 -->
<g id="node11" class="node">
<title>11</title>
<ellipse fill="chocolate" stroke="black" cx="1522.53" cy="-669.45" rx="28.03" ry="18"/>
<text text-anchor="middle" x="1522.53" y="-666.65" font-family="Arial" font-size="11.00">Hooke</text>
</g>
<!-- 12 -->
<g id="node12" class="node">
<title>12</title>
<ellipse fill="chocolate" stroke="black" cx="1640.5" cy="-867.93" rx="38.47" ry="18"/>
<text text-anchor="middle" x="1640.5" y="-865.13" font-family="Arial" font-size="11.00">Asclepius</text>
</g>
<!-- 13 -->
<g id="node13" class="node">
<title>13</title>
<ellipse fill="chocolate" stroke="black" cx="1200.47" cy="-252.94" rx="40.78" ry="18"/>
<text text-anchor="middle" x="1200.47" y="-250.14" font-family="Arial" font-size="11.00">Cavendish</text>
</g>
<!-- 14 -->
<g id="node14" class="node">
<title>14</title>
<ellipse fill="lightgrey" stroke="black" cx="955.99" cy="-70.93" rx="31.74" ry="18"/>
<text text-anchor="middle" x="955.99" y="-68.13" font-family="Arial" font-size="11.00">Priestly</text>
</g>
<!-- 17 -->
<g id="node15" class="node">
<title>17</title>
<ellipse fill="chocolate" stroke="black" cx="1675.62" cy="-449.14" rx="31.74" ry="18"/>
<text text-anchor="middle" x="1675.62" y="-446.34" font-family="Arial" font-size="11.00">Galvani</text>
</g>
<!-- 18 -->
<g id="node16" class="node">
<title>18</title>
<ellipse fill="chocolate" stroke="black" cx="1284.78" cy="-974.29" rx="36.16" ry="18"/>
<text text-anchor="middle" x="1284.78" y="-971.49" font-family="Arial" font-size="11.00">Herschel</text>
</g>
<!-- 20 -->
<g id="node17" class="node">
<title>20</title>
<polygon fill="lightgrey" stroke="black" points="1364.26,-543.31 1310.26,-543.31 1310.26,-507.31 1364.26,-507.31 1364.26,-543.31"/>
<text text-anchor="middle" x="1337.26" y="-522.51" font-family="Arial" font-size="11.00">Curie</text>
</g>
<!-- 22 -->
<g id="node18" class="node">
<title>22</title>
<ellipse fill="chocolate" stroke="black" cx="1337.26" cy="-830.11" rx="30.13" ry="18"/>
<text text-anchor="middle" x="1337.26" y="-827.31" font-family="Arial" font-size="11.00">Jenner</text>
</g>
<!-- 26 -->
<g id="node19" class="node">
<title>26</title>
<ellipse fill="chocolate" stroke="black" cx="73.27" cy="-451.69" rx="28.73" ry="18"/>
<text text-anchor="middle" x="73.27" y="-448.89" font-family="Arial" font-size="11.00">Dalton</text>
</g>
<!-- 24 -->
<g id="node20" class="node">
<title>24</title>
<ellipse fill="cornflowerblue" stroke="black" cx="37.88" cy="-600.99" rx="28.73" ry="18"/>
<text text-anchor="middle" x="37.88" y="-598.19" font-family="Arial" font-size="11.00">Cuvier</text>
</g>
<!-- 25 -->
<g id="node21" class="node">
<title>25</title>
<ellipse fill="cornflowerblue" stroke="black" cx="240.76" cy="-197.04" rx="30.84" ry="18"/>
<text text-anchor="middle" x="240.76" y="-194.24" font-family="Arial" font-size="11.00">Darwin</text>
</g>
<!-- 28 -->
<g id="node22" class="node">
<title>28</title>
<ellipse fill="lightgrey" stroke="black" cx="363.83" cy="-105.42" rx="27" ry="18"/>
<text text-anchor="middle" x="363.83" y="-102.62" font-family="Arial" font-size="11.00">Davy</text>
</g>
<!-- 29 -->
<g id="node23" class="node">
<title>29</title>
<ellipse fill="cornflowerblue" stroke="black" cx="504.72" cy="-44.64" rx="30.84" ry="18"/>
<text text-anchor="middle" x="504.72" y="-41.84" font-family="Arial" font-size="11.00">Mendel</text>
</g>
<!-- 30 -->
<g id="node24" class="node">
<title>30</title>
<ellipse fill="chocolate" stroke="black" cx="37.88" cy="-754.43" rx="37.77" ry="18"/>
<text text-anchor="middle" x="37.88" y="-751.63" font-family="Arial" font-size="11.00">Thomson</text>
</g>
<!-- 27 -->
<g id="node25" class="node">
<title>27</title>
<ellipse fill="lightgrey" stroke="black" cx="73.27" cy="-903.73" rx="33.15" ry="18"/>
<text text-anchor="middle" x="73.27" y="-900.93" font-family="Arial" font-size="11.00">Maxwell</text>
</g>
<!-- 31 -->
<g id="node26" class="node">
<title>31</title>
<ellipse fill="lightgrey" stroke="black" cx="1088.87" cy="-1207.78" rx="27" ry="18"/>
<text text-anchor="middle" x="1088.87" y="-1204.98" font-family="Arial" font-size="11.00">Koch</text>
</g>
<!-- 32 -->
<g id="node27" class="node">
<title>32</title>
<polygon fill="cornflowerblue" stroke="black" points="169.13,-332.58 115.13,-332.58 115.13,-296.58 169.13,-296.58 169.13,-332.58"/>
<text text-anchor="middle" x="142.13" y="-311.78" font-family="Arial" font-size="11.00">Carson</text>
</g>
<!-- 33 -->
<g id="node28" class="node">
<title>33</title>
<ellipse fill="cornflowerblue" stroke="black" cx="955.99" cy="-1284.5" rx="33.85" ry="18"/>
<text text-anchor="middle" x="955.99" y="-1281.7" font-family="Arial" font-size="11.00">Fleming</text>
</g>
<!-- 15 -->
<g id="node29" class="node">
<title>15</title>
<ellipse fill="cornflowerblue" stroke="black" cx="240.76" cy="-1158.38" rx="34.76" ry="18"/>
<text text-anchor="middle" x="240.76" y="-1155.58" font-family="Arial" font-size="11.00">Hawking</text>
</g>
<!-- 16 -->
<g id="node30" class="node">
<title>16</title>
<polygon fill="lightgrey" stroke="black" points="390.83,-1268.01 336.83,-1268.01 336.83,-1232.01 390.83,-1232.01 390.83,-1268.01"/>
<text text-anchor="middle" x="363.83" y="-1247.21" font-family="Arial" font-size="11.00">Goodall</text>
</g>
<!-- 19 -->
<g id="node31" class="node">
<title>19</title>
<ellipse fill="lightgrey" stroke="black" cx="504.72" cy="-1310.78" rx="27.12" ry="18"/>
<text text-anchor="middle" x="504.72" y="-1307.98" font-family="Arial" font-size="11.00">Gould</text>
</g>
<!-- 21 -->
<g id="node32" class="node">
<title>21</title>
<ellipse fill="chocolate" stroke="black" cx="655.82" cy="-1337.42" rx="28.03" ry="18"/>
<text text-anchor="middle" x="655.82" y="-1334.62" font-family="Arial" font-size="11.00">Pinker</text>
</g>
<!-- 23 -->
<g id="node33" class="node">
<title>23</title>
<polygon fill="chocolate" stroke="black" points="836,-1346.5 782,-1346.5 782,-1310.5 836,-1310.5 836,-1346.5"/>
<text text-anchor="middle" x="809" y="-1325.7" font-family="Arial" font-size="11.00">Mead</text>
</g>
<!-- 34 -->
<g id="node34" class="node">
<title>34</title>
<ellipse fill="cornflowerblue" stroke="black" cx="142.13" cy="-1040.84" rx="33.85" ry="18"/>
<text text-anchor="middle" x="142.13" y="-1038.04" font-family="Arial" font-size="11.00">Einstein</text>
</g>
</g>
</svg>
